<?xml version="1.0" encoding="UTF-8"?><svg xmlns="http://www.w3.org/2000/svg" version="1.1" width="100%" height="100%" viewBox="0 0 1 1"><path fill="#e01b0d" stroke="#000" stroke-width="0.001" stroke-linecap="round" stroke-linejoin="round" d="M0.5 0.8252014900627546C0.5570220142341913 0.8815048529114724 0.6522091849527465 0.885392096179882 0.6741209617261158 0.9203651872926355C0.6648852177855281 0.8801415114634572 0.729444015607366 0.810085321491191 0.7299521788753434 0.7299521788753434C0.810085321491191 0.729444015607366 0.8801415114634572 0.6648852177855282 0.9203651872926355 0.6741209617261159C0.885392096179882 0.6522091849527465 0.8815048529114724 0.5570220142341913 0.8252014900627546 0.5C0.8815048529114724 0.4429779857658087 0.885392096179882 0.3477908150472535 0.9203651872926355 0.3258790382738842C0.8801415114634572 0.3351147822144719 0.8100853214911911 0.270555984392634 0.7299521788753434 0.2700478211246566C0.729444015607366 0.189914678508809 0.6648852177855281 0.1198584885365428 0.6741209617261159 0.07963481270736456C0.6522091849527467 0.1146079038201181 0.5570220142341914 0.11849514708852754 0.5 0.17479850993724544C0.44297798576580877 0.11849514708852754 0.34779081504725345 0.11460790382011804 0.3258790382738842 0.0796348127073645C0.33511478221447194 0.1198584885365428 0.270555984392634 0.1899146785088089 0.2700478211246566 0.27004782112465653C0.189914678508809 0.2705559843926339 0.1198584885365429 0.33511478221447166 0.07963481270736467 0.3258790382738839C0.1146079038201182 0.3477908150472532 0.11849514708852754 0.4429779857658086 0.17479850993724544 0.49999999999999994C0.11849514708852754 0.5570220142341913 0.11460790382011793 0.6522091849527464 0.07963481270736461 0.6741209617261159C0.11985848853654285 0.6648852177855282 0.18991467850880916 0.7294440156073663 0.27004782112465675 0.7299521788753436C0.2705559843926339 0.810085321491191 0.33511478221447166 0.880141511463457 0.32587903827388387 0.9203651872926353C0.3477908150472531 0.8853920961798818 0.4429779857658086 0.8815048529114724 0.49999999999999994 0.8252014900627546ZM0.5649745079546424 0.6774572719546039C0.5572656057660492 0.662953061607118 0.5254651293238203 0.6592521806591567 0.5057160403385141 0.6369395767759262L0.5133604147120729 0.5656591761242069ZM0.6378879483387813 0.8544539430617039C0.619896103223548 0.822167507202844 0.548674693838389 0.814250873707082 0.505717249982645 0.7634490161876784L0.5187922726409834 0.7001169875431711L0.5370117296428119 0.7395375421848301L0.5462393378592982 0.7174002875177923L0.5693882648205594 0.7570834839634997L0.5757538932222253 0.73226605859133ZM0.5927890524661741 0.6008727542359724C0.5946017312341692 0.6306148624915006 0.5747323167115734 0.6557181130434312 0.5795373251909788 0.6714251555489527L0.5369808088421772 0.5558752885269198ZM0.682243879610765 0.6903292920756989C0.6877907177067711 0.7566271298773788 0.6430274813938838 0.81258617664831 0.6531352834429885 0.8481382900714938L0.6106708134706843 0.7178029966681185L0.6327205622522681 0.7308503874310393L0.6210290681778503 0.6864213668936218L0.6432073754137767 0.6955498654415275L0.6282159355040544 0.6547922223407459ZM0.6714251555489527 0.5795373251909788C0.6557181130434312 0.5747323167115734 0.6306148624915006 0.5946017312341692 0.6008727542359724 0.5927890524661741L0.5558752885269198 0.5369808088421772ZM0.8481382900714938 0.6531352834429885C0.81258617664831 0.6430274813938838 0.7566271298773788 0.6877907177067711 0.6903292920756988 0.682243879610765L0.6547922223407459 0.6282159355040544L0.6955498654415275 0.6432073754137767L0.6864213668936217 0.6210290681778503L0.7308503874310393 0.6327205622522681L0.7178029966681185 0.6106708134706843ZM0.6369395767759262 0.5057160403385141C0.6592521806591567 0.5254651293238203 0.662953061607118 0.5572656057660493 0.6774572719546038 0.5649745079546424L0.5656591761242069 0.5133604147120729ZM0.7634490161876784 0.505717249982645C0.814250873707082 0.548674693838389 0.822167507202844 0.6198961032235482 0.8544539430617037 0.6378879483387814L0.73226605859133 0.5757538932222253L0.7570834839634997 0.5693882648205595L0.7174002875177923 0.5462393378592983L0.7395375421848301 0.5370117296428119L0.7001169875431711 0.5187922726409833ZM0.6774572719546039 0.43502549204535756C0.662953061607118 0.4427343942339507 0.6592521806591567 0.4745348706761798 0.6369395767759262 0.49428395966148586L0.5656591761242069 0.4866395852879271ZM0.8544539430617039 0.36211205166121874C0.822167507202844 0.38010389677645195 0.814250873707082 0.45132530616161104 0.7634490161876784 0.49428275001735505L0.7001169875431712 0.4812077273590167L0.7395375421848301 0.46298827035718826L0.7174002875177923 0.45376066214070176L0.7570834839634997 0.4306117351794406L0.73226605859133 0.42424610677777475ZM0.6008727542359724 0.407210947533826C0.6306148624915006 0.40539826876583085 0.6557181130434313 0.42526768328842657 0.6714251555489527 0.4204626748090212L0.5558752885269198 0.46301919115782275ZM0.6903292920756989 0.31775612038923495C0.7566271298773788 0.31220928229322886 0.81258617664831 0.35697251860611623 0.8481382900714938 0.34686471655701145L0.7178029966681185 0.38932918652931575L0.7308503874310393 0.36727943774773186L0.6864213668936218 0.3789709318221497L0.6955498654415275 0.3567926245862234L0.6547922223407459 0.37178406449594564ZM0.5795373251909788 0.32857484445104734C0.5747323167115735 0.3442818869565688 0.5946017312341692 0.36938513750849944 0.5927890524661741 0.3991272457640276L0.5369808088421772 0.4441247114730802ZM0.6531352834429887 0.15186170992850623C0.6430274813938839 0.18741382335169 0.6877907177067712 0.24337287012262115 0.682243879610765 0.3096707079243012L0.6282159355040544 0.34520777765925403L0.6432073754137768 0.3044501345584726L0.6210290681778504 0.31357863310637835L0.6327205622522682 0.26914961256896086L0.6106708134706844 0.2821970033318815ZM0.5057160403385141 0.36306042322407384C0.5254651293238203 0.3407478193408433 0.5572656057660493 0.3370469383928821 0.5649745079546424 0.3225427280453962L0.5133604147120729 0.4343408238757931ZM0.505717249982645 0.2365509838123216C0.548674693838389 0.18574912629291795 0.619896103223548 0.17783249279715596 0.6378879483387814 0.1455460569382962L0.5757538932222254 0.26773394140867L0.5693882648205595 0.24291651603650033L0.5462393378592982 0.2825997124822077L0.5370117296428119 0.26046245781516986L0.5187922726409834 0.2998830124568289ZM0.43502549204535756 0.32254272804539613C0.4427343942339508 0.337046938392882 0.4745348706761798 0.3407478193408433 0.49428395966148586 0.36306042322407384L0.4866395852879271 0.4343408238757931ZM0.36211205166121874 0.14554605693829614C0.380103896776452 0.1778324927971559 0.45132530616161115 0.18574912629291795 0.49428275001735505 0.2365509838123216L0.4812077273590167 0.2998830124568289L0.46298827035718826 0.2604624578151698L0.45376066214070176 0.2825997124822077L0.4306117351794407 0.24291651603650022L0.4242461067777748 0.2677339414086699ZM0.407210947533826 0.3991272457640276C0.40539826876583085 0.36938513750849944 0.4252676832884266 0.3442818869565687 0.4204626748090212 0.32857484445104734L0.46301919115782275 0.4441247114730802ZM0.31775612038923495 0.30967070792430107C0.31220928229322886 0.24337287012262115 0.35697251860611623 0.18741382335169 0.34686471655701145 0.15186170992850623L0.3893291865293158 0.28219700333188136L0.36727943774773186 0.26914961256896075L0.37897093182214964 0.31357863310637824L0.3567926245862234 0.30445013455847253L0.37178406449594564 0.3452077776592541ZM0.32857484445104745 0.42046267480902105C0.3442818869565688 0.42526768328842646 0.36938513750849955 0.40539826876583074 0.3991272457640276 0.4072109475338259L0.4441247114730802 0.46301919115782264ZM0.15186170992850628 0.34686471655701123C0.18741382335169 0.3569725186061161 0.2433728701226212 0.31220928229322864 0.3096707079243012 0.31775612038923495L0.3452077776592541 0.3717840644959456L0.3044501345584726 0.35679262458622313L0.31357863310637835 0.37897093182214947L0.2691496125689609 0.36727943774773164L0.2821970033318816 0.3893291865293155ZM0.36306042322407384 0.4942839596614858C0.3407478193408433 0.47453487067617967 0.3370469383928821 0.44273439423395067 0.3225427280453962 0.43502549204535756L0.4343408238757931 0.48663958528792706ZM0.2365509838123216 0.494282750017355C0.185749126292918 0.45132530616161093 0.17783249279715607 0.3801038967764516 0.14554605693829625 0.3621120516612185L0.26773394140867 0.42424610677777463L0.24291651603650027 0.4306117351794405L0.2825997124822077 0.4537606621407016L0.2604624578151699 0.4629882703571881L0.2998830124568289 0.4812077273590166ZM0.32254272804539613 0.5649745079546424C0.3370469383928821 0.5572656057660492 0.3407478193408433 0.5254651293238203 0.36306042322407384 0.5057160403385141L0.4343408238757931 0.5133604147120729ZM0.1455460569382962 0.6378879483387814C0.17783249279715602 0.6198961032235483 0.18574912629291795 0.548674693838389 0.2365509838123216 0.5057172499826449L0.2998830124568289 0.5187922726409834L0.26046245781516986 0.5370117296428119L0.28259971248220783 0.5462393378592983L0.24291651603650027 0.5693882648205595L0.26773394140867 0.5757538932222253ZM0.3991272457640276 0.5927890524661741C0.36938513750849944 0.5946017312341692 0.3442818869565688 0.5747323167115735 0.3285748444510474 0.5795373251909789L0.4441247114730802 0.5369808088421774ZM0.3096707079243013 0.6822438796107652C0.24337287012262115 0.6877907177067712 0.18741382335169 0.6430274813938838 0.15186170992850623 0.6531352834429887L0.28219700333188147 0.6106708134706843L0.2691496125689608 0.6327205622522682L0.31357863310637824 0.6210290681778504L0.3044501345584726 0.6432073754137767L0.34520777765925414 0.6282159355040544ZM0.420462674809021 0.6714251555489525C0.42526768328842646 0.6557181130434312 0.40539826876583085 0.6306148624915006 0.407210947533826 0.6008727542359724L0.4630191911578227 0.5558752885269198ZM0.3468647165570112 0.8481382900714938C0.3569725186061161 0.81258617664831 0.31220928229322864 0.7566271298773788 0.31775612038923495 0.6903292920756988L0.3717840644959456 0.6547922223407459L0.3567926245862232 0.6955498654415275L0.3789709318221495 0.6864213668936217L0.3672794377477317 0.7308503874310391L0.3893291865293156 0.7178029966681185ZM0.49428395966148575 0.6369395767759262C0.47453487067617967 0.6592521806591567 0.44273439423395067 0.662953061607118 0.43502549204535756 0.6774572719546038L0.48663958528792706 0.5656591761242069ZM0.49428275001735494 0.7634490161876784C0.45132530616161093 0.8142508737070819 0.3801038967764516 0.8221675072028439 0.36211205166121846 0.8544539430617037L0.4242461067777745 0.73226605859133L0.4306117351794404 0.7570834839634997L0.45376066214070154 0.7174002875177923L0.4629882703571881 0.73953754218483L0.48120772735901657 0.7001169875431711ZM0.4947721560567631 0.5262821463145058L0.48974521522445613 0.5247572404843351L0.48511236002012376 0.5222809277863719L0.4810516284711333 0.5189483715288666L0.4777190722136281 0.5148876399798763L0.47524275951566486 0.5102547847755439L0.4737178536854942 0.5052278439432369L0.47320295599899254 0.5L0.4737178536854942 0.4947721560567631L0.47524275951566486 0.48974521522445613L0.4777190722136281 0.48511236002012376L0.48105162847113336 0.4810516284711333L0.48511236002012376 0.4777190722136281L0.48974521522445613 0.47524275951566486L0.4947721560567631 0.4737178536854942L0.5 0.47320295599899254L0.5052278439432369 0.4737178536854942L0.5102547847755439 0.47524275951566486L0.5148876399798762 0.4777190722136281L0.5189483715288666 0.48105162847113336L0.5222809277863719 0.48511236002012376L0.5247572404843351 0.48974521522445613L0.5262821463145058 0.4947721560567631L0.5267970440010075 0.5L0.5262821463145058 0.5052278439432369L0.5247572404843351 0.5102547847755439L0.5222809277863719 0.5148876399798763L0.5189483715288666 0.5189483715288666L0.5148876399798762 0.5222809277863719L0.5102547847755439 0.5247572404843351L0.5052278439432369 0.5262821463145058L0.5 0.5267970440010075Z"></path><path fill="transparent" stroke="#0f0" stroke-width="0.001" stroke-linecap="round" stroke-linejoin="round"></path></svg>