<?xml version="1.0" encoding="UTF-8"?>
<svg xmlns="http://www.w3.org/2000/svg" version="1.1" viewBox="0 0 512 100">
  <defs>
    <style>
      .cls-1 {
        fill: #d13030;
      }
    </style>
  </defs>
  <!-- Generator: Adobe Illustrator 28.7.1, SVG Export Plug-In . SVG Version: 1.2.0 Build 142)  -->
  <g>
    <g id="Layer_1">
      <path class="cls-1" d="M0,0h512v100H0V0M28.5,67.9v4.3c0,0,8.5.4,8.5.4l5-1.5v-10.7h4.3s5.8-1.5,5.8-1.5l6.5-8v-10.7l-.8-5.8-7.9-7.1-21.2.3v40.3M62,72.1l8.4.5,5.1-1.6v-8.6l3.8-2.7v8.6l2.3,4.3h10.7s.5-29.7.5-29.7l-1.9-5.8-4.9-7-5-2.7h-8.6l-4.5,3.9-5.9,8.8v32M105.2,72.6l5-1.5v-10.7h4.3s5.8-1.5,5.8-1.5l6.5-8v-10.7l-.8-5.8-7.9-7.1-21.2.3v40.3c-.1,0,1.9,4.6,1.9,4.6h6.4M144.1,72.6h8.5l3-3.8v-4.3l-2-4.6-9.8-.9,3.1-3.4h4.3l4.2-2.4v-4.3l-1.9-4.7h-8.6v-4.2h8.7l2.1-4.5v-4.3l-3-3.8h-17l-5.4,1.2v38.4l.9,5.7h13M159.5,72l8.3.6,5.1-1.4v-4.4l1.7-5.6,3,8.1,4.1,3.4h4.4l4.7-2-.3-6.3-5.1-9.5,1.2-4.7,3.5-5.1-1.3-10.2-7.7-7.4h-17.1c0-.1-4.8,2-4.8,2v42.5M209.4,72.6l7.3-1.3v-4.7l-1.9-5.5-4.7-4.5-2.4-5.5,1-6,4.5-4.6,3.5-5v-4.3l-2.7-4h-4.4l-5.7,1.7-7.6,7.8-2.1,5.7v14.9l1.9,5.6,7.6,7.8,5.6,1.9M245.9,72.6l5.1-1.7V30.7l-3.3-3.4-10.2.8v27.5l-3.5,3.1v-27.6s-2.7-3.9-2.7-3.9l-10.6.2-.2,34,2.2,5.4,3.1,3.1,5.3,2.6h14.9M260.1,67.9l2.1,4.7h8.7l2.9-4v-23.2l.9-5.4,4.3-2.4-.8-10.2h-19.3l-3.9,2.7v9.1l5.2.9v27.9M288,67.9l2.1,4.7h8.7l2.9-4v-23.2l.9-5.4,4.3-2.4-.8-10.2h-19.3l-3.9,2.7v9.1l5.2.9v27.9M310.8,72l12.7.6.8-4.2V30.1l-4.1-2.7h-4.3l-5.1,1.7v43M336.7,72.6h2.6l2.4-3.8v-23.3l.8-5.5,2.7,3.9v23.3l1,5.5h8.7l3.8-3v-31.8l-2.7-5.3-3.1-3.1-5.6-2h-14.9l-4.3,2.5v38.1l2,4.7h6.5M384.2,72.6l5.2-2.5,3.1-3.1,2.4-5.4v-17s-12.5-.6-12.5-.6l-3.6,3v6.4c0,0,4,2.7,4,2.7l-2.8,3.6-3.7-3.2v-12.8l2.7-4h8.6l5.1-1.4v-8.7l-4.1-2.5-18.6.7-7.2,7.9.6,29.3,6.4,6.4,5.7.9h8.6M404.3,72.3h4.5-1.6l2.9-3.8v-4.4l-2.7-4h-4.3l-5.1,1.3.6,10.8h5.8M421.6,72.5h2.1s5.4-2,5.4-2l5.6,2,6.2-.5v-34.2s-4.1-2.7-4.1-2.7h-12.7l-5.4,2.4-3.1,3.1-2.3,5.5v14.9l2,5.5,6.3,5.8M444.9,66.3l.4,6.3h6.5c0,0,5.1-1.6,5.1-1.6l.5-18.9,3.8-2.7,2.6-5.1v-8.6c0,0-5.9,1.1-5.9,1.1l-4.6-1.5h-4.7l-3.8,3.3v27.8M474.6,71.6l3.8,1,5.1-1.5-.3-6.3-3.7-4.8v-8.8l.9-5.4,3.3-3.4v-4.4l-3.8-2.8-1.4-5.1h-8.8l-4.5,8.8v6.4s2.3,4.5,2.3,4.5l.6,16.6,3.2,3.2,3.4,2"/>
    </g>
  </g>
</svg>